<svg viewBox="0 0 30 30" fill="none" xmlns="http://www.w3.org/2000/svg">
<path d="M25 16.25C25 22.5 20.625 25.625 15.425 27.4375C15.1527 27.5298 14.8569 27.5254 14.5875 27.425C9.375 25.625 5 22.5 5 16.25V7.50001C5 7.16849 5.1317 6.85055 5.36612 6.61613C5.60054 6.38171 5.91848 6.25001 6.25 6.25001C8.75 6.25001 11.875 4.75001 14.05 2.85001C14.3148 2.62376 14.6517 2.49945 15 2.49945C15.3483 2.49945 15.6852 2.62376 15.95 2.85001C18.1375 4.76251 21.25 6.25001 23.75 6.25001C24.0815 6.25001 24.3995 6.38171 24.6339 6.61613C24.8683 6.85055 25 7.16849 25 7.50001V16.25Z" stroke="currentColor" stroke-width="1.66667" stroke-linecap="round" stroke-linejoin="round"/>
</svg>